<?xml version="1.0" encoding="UTF-8" standalone="no"?>
<svg
   xmlns:dc="http://purl.org/dc/elements/1.1/"
   xmlns:cc="http://creativecommons.org/ns#"
   xmlns:rdf="http://www.w3.org/1999/02/22-rdf-syntax-ns#"
   xmlns:svg="http://www.w3.org/2000/svg"
   xmlns="http://www.w3.org/2000/svg"
   xmlns:sodipodi="http://sodipodi.sourceforge.net/DTD/sodipodi-0.dtd"
   xmlns:inkscape="http://www.inkscape.org/namespaces/inkscape"
   version="1.1"
   x="0px"
   y="0px"
   viewBox="0 0 100 100"
   xml:space="preserve"
   id="svg2"
   inkscape:version="0.91 r13725"
   sodipodi:docname="circle_check.svg"
   width="100"
   height="100"><metadata
     id="metadata18"><rdf:RDF><cc:Work
         rdf:about=""><dc:format>image/svg+xml</dc:format><dc:type
           rdf:resource="http://purl.org/dc/dcmitype/StillImage" /><dc:title></dc:title></cc:Work></rdf:RDF></metadata><defs
     id="defs16" /><sodipodi:namedview
     pagecolor="#ffffff"
     bordercolor="#666666"
     borderopacity="1"
     objecttolerance="10"
     gridtolerance="10"
     guidetolerance="10"
     inkscape:pageopacity="0"
     inkscape:pageshadow="2"
     inkscape:window-width="1920"
     inkscape:window-height="1017"
     id="namedview14"
     showgrid="false"
     inkscape:zoom="5.3400704"
     inkscape:cx="38.12506"
     inkscape:cy="69.85263"
     inkscape:window-x="-8"
     inkscape:window-y="32"
     inkscape:window-maximized="1"
     inkscape:current-layer="svg2" /><g
     id="g4"><g
       id="g6"><path
         d="M 50,5 C 25.2,5 5,25.2 5,50 5,74.8 25.2,95 50,95 74.8,95 95,74.8 95,50 95,25.2 74.8,5 50,5 Z M 39.3,70.8 21.6,53.1 c -1.7,-1.7 -1.7,-4.6 0,-6.3 l 0,0 c 1.7,-1.7 4.6,-1.7 6.3,0 l 11.4,11.4 c 0.9,0.9 2.4,0.9 3.3,0 L 72,28.8 c 1.7,-1.7 4.6,-1.7 6.3,0 l 0,0 c 1.7,1.7 1.7,4.6 0,6.3 L 42.7,70.8 c -1,1 -2.4,1 -3.4,0 z"
         id="path8"
         inkscape:connector-curvature="0" /></g></g></svg>